<svg width="82" height="45" viewBox="0 0 82 45" fill="none" xmlns="http://www.w3.org/2000/svg">
<path d="M32.3339 38.8072L36.8695 31.1115H13.8919C10.4757 31.1115 7.69704 28.3315 7.69704 24.9166C7.69704 21.5004 10.477 18.7218 13.8919 18.7218H19.7172C19.0862 17.3371 18.6691 15.8467 18.4909 14.3036C18.3641 13.2054 18.3615 12.1058 18.479 11.026H13.8919C6.23182 11.026 0 17.2579 0 24.9179C0 32.578 6.23182 38.8098 13.8919 38.8098H32.3339V38.8072Z" fill="#002073"/>
<path d="M13.4379 28.4241C15.3581 28.4241 16.9148 26.8674 16.9148 24.9471C16.9148 23.0269 15.3581 21.4702 13.4379 21.4702C11.5176 21.4702 9.96094 23.0269 9.96094 24.9471C9.96094 26.8674 11.5176 28.4241 13.4379 28.4241Z" fill="#002073"/>
<path d="M24.1967 26.2781C24.9316 24.504 24.0891 22.47 22.315 21.7351C20.5409 21.0002 18.5069 21.8427 17.772 23.6169C17.0371 25.391 17.8796 27.4249 19.6537 28.1598C21.4279 28.8947 23.4618 28.0522 24.1967 26.2781Z" fill="#002073"/>
<path d="M69.5352 20.0677C69.613 20.0677 69.6922 20.0691 69.7701 20.0704L69.7714 20.0677H69.5352Z" fill="#002073"/>
<path d="M69.777 20.0721L65.2903 27.7652H69.5421C72.0937 27.7652 74.1661 29.8403 74.1661 32.3892C74.1661 34.9382 72.0923 37.0133 69.5421 37.0133H57.2817L62.6779 27.7639L64.5088 24.6249L67.166 20.0682L68.7012 17.436H59.7897L58.2545 20.0682L55.5973 24.6249L53.7665 27.7639L48.3729 37.0133H45.7342L52.9613 24.6249L57.1537 17.436H48.2792H48.2422L44.0498 24.6249L43.8822 24.9153L43.8795 24.9179L39.7413 32.0117L36.197 38.0917L32.3359 44.7103H69.5434C76.3362 44.7103 81.8645 39.1821 81.8645 32.3892C81.8631 25.6756 76.4616 20.1975 69.777 20.0721Z" fill="#FFD400"/>
<path d="M29.1018 24.522L33.2031 17.4915C33.186 17.4929 33.1675 17.4929 33.149 17.4929C30.4482 17.4929 28.2504 15.295 28.2504 12.5943C28.2504 9.89482 30.4482 7.69698 33.149 7.69698C35.7112 7.69698 37.8232 9.67701 38.0291 12.1877C38.041 12.321 38.0476 12.457 38.0476 12.5943C38.0476 13.48 37.8126 14.3103 37.3955 15.0284L37.3982 15.031L34.1021 20.6781L32.328 23.7207L30.4469 26.9455L30.1473 27.4577L29.9691 27.7653L29.5836 28.4213L29.5863 28.424H38.3737L38.7063 27.9052L39.6462 26.4413L40.9107 24.2751L44.1567 18.7086L46.3479 14.9531H70.1426L74.6188 7.27986H44.5672C44.1949 6.48784 43.7448 5.73807 43.2247 5.04638C43.0346 4.79426 42.8353 4.54741 42.6268 4.30981C40.3154 1.67109 36.9243 -6.10352e-05 33.149 -6.10352e-05C26.2044 -6.10352e-05 20.5547 5.64963 20.5547 12.5943C20.5547 18.1251 24.1359 22.8337 29.1018 24.522Z" fill="#002073"/>
<path d="M7.78362 40.7998H4.54297V41.5932H5.66235V44.7097H6.66292V41.5932H7.78362V40.7998Z" fill="#002073"/>
<path d="M9.05558 40.7998L7.64844 44.7097H8.68597L8.90906 43.993H10.2159L10.4548 44.7097H11.5306L10.1486 40.7998H9.05558ZM9.14798 43.1838L9.56775 41.8347L10.0034 43.1838H9.14798Z" fill="#002073"/>
<path d="M12.9381 40.7998H11.9336V44.7097H14.831V43.8623H12.9381V40.7998Z" fill="#002073"/>
<path d="M16.2626 40.7998L14.8555 44.7097H15.893L16.1161 43.993H17.4229L17.6618 44.7097H18.7376L17.3569 40.7998H16.2626ZM16.355 43.1838L16.7748 41.8347L17.2104 43.1838H16.355Z" fill="#002073"/>
<path d="M21.8587 42.759C21.7346 42.66 21.4257 42.5293 20.9294 42.3683L20.8898 42.3551C20.8436 42.3405 20.7776 42.3194 20.6905 42.2917C20.2113 42.1373 19.9711 41.9736 19.9711 41.8007C19.9711 41.6977 20.0212 41.6132 20.1229 41.5472C20.2232 41.4812 20.3552 41.4482 20.5162 41.4482C20.7182 41.4482 20.8727 41.4918 20.9796 41.5789C21.0865 41.666 21.1512 41.7993 21.1723 41.9828H22.1148C22.1148 41.5881 21.9775 41.2753 21.7003 41.043C21.4244 40.8106 21.0509 40.6958 20.5796 40.6958C20.1004 40.6958 19.7203 40.8054 19.4391 41.0258C19.1579 41.2462 19.018 41.5433 19.018 41.9168C19.018 42.161 19.0906 42.3749 19.2371 42.5584C19.3837 42.7418 19.5962 42.8884 19.8787 43.0006C20.0727 43.0784 20.3116 43.159 20.5955 43.2421C20.8793 43.3253 21.0561 43.386 21.1287 43.4256C21.1763 43.4507 21.2132 43.4876 21.2396 43.5352C21.266 43.584 21.2792 43.6395 21.2792 43.7015C21.2792 43.8229 21.2238 43.918 21.1116 43.9853C21.0007 44.0526 20.8423 44.0856 20.639 44.0856C20.4001 44.0856 20.2192 44.0289 20.0952 43.9167C19.9711 43.8045 19.9064 43.6368 19.8985 43.4137H18.9375C18.9679 43.8863 19.1157 44.2387 19.381 44.4711C19.6464 44.7034 20.0331 44.8196 20.5413 44.8196C21.0799 44.8196 21.497 44.7113 21.7953 44.4948C22.0937 44.2783 22.2428 43.9747 22.2428 43.5853C22.2428 43.415 22.2098 43.2606 22.1438 43.122C22.0792 42.9821 21.9841 42.862 21.8587 42.759Z" fill="#002073"/>
<path d="M25.0989 43.2419C25.0989 43.5112 25.0487 43.7026 24.9471 43.8161C24.8468 43.9296 24.6804 43.9877 24.4481 43.9877C24.2132 43.9877 24.0442 43.9309 23.9425 43.8161C23.8409 43.7026 23.7894 43.5098 23.7894 43.2419V40.7998H22.8047V43.1231C22.8047 43.4465 22.8377 43.7065 22.9037 43.9019C22.9697 44.0972 23.0766 44.2636 23.2245 44.3995C23.3789 44.5395 23.5571 44.6437 23.7617 44.7137C23.9663 44.7837 24.1973 44.818 24.4534 44.818C24.7095 44.818 24.9405 44.7837 25.1451 44.7137C25.3497 44.6437 25.5292 44.5395 25.6823 44.3995C25.8289 44.2649 25.9345 44.0999 25.9978 43.9058C26.0612 43.7118 26.0929 43.4504 26.0929 43.1231V40.7998H25.0976V43.2419H25.0989Z" fill="#002073"/>
<path d="M26.5 41.5932H27.6207V44.7097H28.6213V41.5932H29.7407V40.7998H26.5V41.5932Z" fill="#002073"/>
</svg>
